<svg xmlns="http://www.w3.org/2000/svg" width="128" height="106.6" viewBox="0 0 128 106.6"><path d="M128,12.7a51.286,51.286,0,0,1-15.1,4.2A26.511,26.511,0,0,0,124.4,2a51.437,51.437,0,0,1-16.7,6.5A26.056,26.056,0,0,0,88.5,0C74,0,62.2,12.1,62.2,26.9a24.278,24.278,0,0,0,.7,6.1A73.419,73.419,0,0,1,8.9,5,27.064,27.064,0,0,0,5.3,18.6,26.975,26.975,0,0,0,17,41,25.325,25.325,0,0,1,5.1,37.6v.3A26.8,26.8,0,0,0,26.2,64.3a25.742,25.742,0,0,1-11.8.4A26.267,26.267,0,0,0,38.9,83.4,51.968,51.968,0,0,1,6.3,94.9,44.423,44.423,0,0,1,0,94.5a73.249,73.249,0,0,0,40.3,12.1c48.3,0,74.7-41,74.7-76.6,0-1.2,0-2.3-.1-3.5A52.213,52.213,0,0,0,128,12.7" fill="#fff" fill-rule="evenodd"/></svg>